<?xml version="1.0" standalone="no"?>
<!DOCTYPE svg PUBLIC "-//W3C//DTD SVG 20010904//EN"
 "http://www.w3.org/TR/2001/REC-SVG-20010904/DTD/svg10.dtd">
<svg version="1.0" xmlns="http://www.w3.org/2000/svg"
 width="50.000000pt" height="50.000000pt" viewBox="0 0 50.000000 50.000000"
 preserveAspectRatio="xMidYMid meet">

<g transform="translate(0.000000,50.000000) scale(0.100000,-0.100000)"
fill="#000000" stroke="none">
<path d="M12 378 c-17 -17 -17 -239 0 -256 17 -17 229 -17 246 0 17 17 17 239
0 256 -17 17 -229 17 -246 0z"/>
<path d="M285 250 l0 -140 96 0 c60 0 99 4 107 12 17 17 17 239 0 256 -8 8
-47 12 -108 12 l-95 0 0 -140z"/>
</g>
</svg>
