<?xml version="1.0" standalone="no"?>
<!DOCTYPE svg PUBLIC "-//W3C//DTD SVG 20010904//EN"
 "http://www.w3.org/TR/2001/REC-SVG-20010904/DTD/svg10.dtd">
<svg version="1.0" xmlns="http://www.w3.org/2000/svg"
 width="50.000000pt" height="50.000000pt" viewBox="0 0 50.000000 50.000000"
 preserveAspectRatio="xMidYMid meet">

<g transform="translate(0.000000,50.000000) scale(0.100000,-0.100000)"
fill="#000000" stroke="none">
<path d="M179 467 c-57 -21 -97 -54 -126 -105 -23 -38 -28 -59 -28 -113 0 -56
5 -73 30 -115 19 -30 49 -60 79 -79 42 -25 59 -30 116 -30 57 0 74 5 116 30
30 19 60 49 79 79 25 42 30 59 30 116 0 57 -5 74 -30 116 -56 90 -175 135
-266 101z m81 -127 c0 -73 -4 -120 -10 -120 -6 0 -10 47 -10 120 0 73 4 120
10 120 6 0 10 -47 10 -120z m-66 101 c3 -5 -7 -14 -23 -21 -60 -24 -111 -105
-111 -172 0 -41 30 -106 61 -135 97 -89 245 -58 300 62 10 22 19 55 19 73 0
68 -51 148 -112 173 -18 7 -26 15 -20 21 23 23 110 -50 136 -114 70 -167 -105
-342 -272 -272 -162 67 -177 282 -27 375 34 21 41 23 49 10z"/>
</g>
</svg>
